# xmcd
#
# Track frame offsets:
# 150
# 22026
# 46361
# 65165
# 87569
# 112631
# 138161
# 158101
# 188361
# 204928
# 229309
# 256119
# 282229
# 295856
# 313044
#
# Disc length: 4384 seconds
#
#
# Revision: 1
# Processed by: cddbd v1.5.1PL2 Copyright (c) Steve Scherf et al.
# Submitted via: FreeRIP 2.90 
#
DISCID=cd111e0f
DTITLE=Voz da Verdade - Somos mais que vencedores
DYEAR=2002
DGENRE=Gospel
TTITLE0=Somos mais que vencedores
TTITLE1=Além dos montes
TTITLE2=Querido (La Habib)
TTITLE3=Sombras
TTITLE4=A escolha
TTITLE5=Por qual motivo
TTITLE6=Crente não morre na praia
TTITLE7=Debaixo das asas
TTITLE8=Expressão de vida
TTITLE9=Quantas vezes
TTITLE10=Momento de glória
TTITLE11=Aproximação
TTITLE12=O mundo só precisa de amor
TTITLE13=Vencer ou vencer
TTITLE14=Isaías 9
EXTD=
EXTT0=
EXTT1=
EXTT2=
EXTT3=
EXTT4=
EXTT5=
EXTT6=
EXTT7=
EXTT8=
EXTT9=
EXTT10=
EXTT11=
EXTT12=
EXTT13=
EXTT14=
PLAYORDER=
